# File created by Blade
# Date/Time:  Thu Sep 25 21:01:51 2014
# Frame Rate: 120.000 fps
#------------------------------------------------------
:FULLY-SPECIFIED
:DEGREES
1734
root 3.080875 4.943233 -7.208742 24.465564 -6.461330 -11.148320
Spine -16.049726 22.181947 22.622104
Head -14.791497 1.411018 -7.332971
LeftShoulder -11.320543 17.629607 7.803182
LeftArm 26.675195 45.909334 -69.042376
LeftForeArm 20.118035 -0.000000 37.971588
LeftHand -24.756944 -0.000000 0.821264
LeftHandThumb1 -26.253704 0.000000 33.147579
RightShoulder -18.581502 13.532472 -25.014413
RightArm -16.642237 -8.849368 53.234242
RightForeArm -27.181747 -0.000000 31.932901
RightHand -6.373359 -0.000000 9.393171
RightHandThumb1 -24.326973 -0.000000 -32.862282
LeftUpLeg -108.859107 -13.198336 -62.719906
LeftLeg 137.200528 -0.000000 -0.000000
LeftFoot 41.433934 7.157303 -27.462912
LeftToeBase 6.882844 -0.000000 -0.000000
RightUpLeg -26.818960 -35.260008 -56.823905
RightLeg 136.791400 -0.000000 -0.000000
RightFoot 19.781613 -28.663364 1.593832
RightToeBase 12.213777 -0.000000 -0.000000
1735
root 3.077640 4.942732 -7.211819 24.444626 -6.437701 -11.194024
Spine -16.033680 22.212116 22.678404
Head -14.670937 1.333578 -7.255772
LeftShoulder -11.336108 17.638962 7.779863
LeftArm 26.704396 45.969482 -69.006647
LeftForeArm 20.125877 -0.000000 37.978488
LeftHand -24.765738 0.000000 0.800788
LeftHandThumb1 -26.253704 0.000000 33.147579
RightShoulder -18.621860 13.515483 -25.020628
RightArm -16.622650 -8.867978 53.208215
RightForeArm -27.077012 -0.000000 31.893928
RightHand -6.371768 0.000000 9.337073
RightHandThumb1 -24.326973 -0.000000 -32.862282
LeftUpLeg -108.862187 -13.191666 -62.680744
LeftLeg 137.207485 -0.000000 -0.000000
LeftFoot 41.396396 7.169261 -27.465897
LeftToeBase 6.860848 -0.000000 -0.000000
RightUpLeg -26.823879 -35.155987 -56.800691
RightLeg 136.845503 -0.000000 -0.000000
RightFoot 18.598220 -29.004930 3.228449
RightToeBase 14.420110 -0.000000 -0.000000
1736
root 3.077513 4.941712 -7.213721 24.418253 -6.409869 -11.207629
Spine -16.033193 22.224902 22.697624
Head -14.539919 1.250318 -7.162619
LeftShoulder -11.333640 17.650229 7.782080
LeftArm 26.690791 46.014753 -69.025763
LeftForeArm 20.144860 -0.000000 37.989161
LeftHand -24.718961 0.000000 0.800684
LeftHandThumb1 -26.253704 0.000000 33.147579
RightShoulder -18.646567 13.502402 -25.007521
RightArm -16.588448 -8.919394 53.175777
RightForeArm -26.907871 -0.000000 31.799697
RightHand -6.343989 0.000000 9.289860
RightHandThumb1 -24.326973 -0.000000 -32.862282
LeftUpLeg -108.834453 -13.198341 -62.685260
LeftLeg 137.205395 -0.000000 -0.000000
LeftFoot 41.355090 7.270967 -27.479295
LeftToeBase 6.777142 -0.000000 -0.000000
RightUpLeg -26.807620 -35.126816 -56.798571
RightLeg 136.855917 -0.000000 -0.000000
RightFoot 18.423542 -29.104110 3.532312
RightToeBase 14.725199 -0.000000 -0.000000
1737
root 3.078295 4.940338 -7.215097 24.385027 -6.400332 -11.214563
Spine -16.016733 22.230332 22.710773
Head -14.414320 1.183096 -7.062508
LeftShoulder -11.341939 17.665695 7.787700
LeftArm 26.672854 46.071896 -69.053650
LeftForeArm 20.178352 -0.000000 37.998185
LeftHand -24.706079 -0.000000 0.895211
LeftHandThumb1 -26.253704 0.000000 33.147579
RightShoulder -18.636988 13.510081 -24.983518
RightArm -16.571201 -9.021567 53.144365
RightForeArm -26.640237 0.000000 31.692340
RightHand -6.306050 -0.000000 9.250988
RightHandThumb1 -24.326973 -0.000000 -32.862282
LeftUpLeg -108.811515 -13.192242 -62.702111
LeftLeg 137.199780 -0.000000 -0.000000
LeftFoot 41.326656 7.312467 -27.471742
LeftToeBase 6.806472 -0.000000 -0.000000
RightUpLeg -26.813409 -35.096151 -56.788194
RightLeg 136.854986 -0.000000 -0.000000
RightFoot 18.553085 -29.098521 3.407579
RightToeBase 14.704862 -0.000000 -0.000000
1738
root 3.079689 4.940001 -7.217362 24.357949 -6.385748 -11.220269
Spine -16.005580 22.215969 22.735692
Head -14.286052 1.132724 -7.007172
LeftShoulder -11.383833 17.685185 7.759086
LeftArm 26.675154 46.116970 -69.048830
LeftForeArm 20.214176 -0.000000 38.003994
LeftHand -24.668532 -0.000000 0.908164
LeftHandThumb1 -26.253704 0.000000 33.147579
RightShoulder -18.602109 13.500909 -24.960997
RightArm -16.517648 -9.106790 53.120539
RightForeArm -26.325551 0.000000 31.548820
RightHand -6.258952 -0.000000 9.250713
RightHandThumb1 -24.326973 -0.000000 -32.862282
LeftUpLeg -108.786822 -13.188065 -62.713111
LeftLeg 137.193471 -0.000000 -0.000000
LeftFoot 41.286313 7.403410 -27.495038
LeftToeBase 6.872346 -0.000000 -0.000000
RightUpLeg -26.809482 -35.060974 -56.778864
RightLeg 136.856967 -0.000000 -0.000000
RightFoot 18.624226 -29.079824 3.360161
RightToeBase 14.689095 -0.000000 -0.000000
1739
root 3.080438 4.939412 -7.218301 24.320219 -6.365959 -11.232712
Spine -15.983585 22.219605 22.764227
Head -14.158254 1.062936 -6.941996
LeftShoulder -11.398373 17.650241 7.758597
LeftArm 26.618164 46.179013 -69.104911
LeftForeArm 20.238993 -0.000000 37.991950
LeftHand -24.622069 -0.000000 0.911930
LeftHandThumb1 -26.253704 0.000000 33.147579
RightShoulder -18.591663 13.509429 -24.947900
RightArm -16.476830 -9.245569 53.101526
RightForeArm -25.993448 -0.000000 31.396345
RightHand -6.264803 -0.000000 9.245940
RightHandThumb1 -24.326973 -0.000000 -32.862282
LeftUpLeg -108.751611 -13.181680 -62.698902
LeftLeg 137.197811 -0.000000 -0.000000
LeftFoot 41.245030 7.469101 -27.576035
LeftToeBase 6.442799 -0.000000 -0.000000
RightUpLeg -26.782973 -35.023798 -56.774876
RightLeg 136.861060 -0.000000 -0.000000
RightFoot 18.603147 -29.096836 3.428935
RightToeBase 14.802250 -0.000000 -0.000000
1740
root 3.081892 4.938812 -7.220169 24.285952 -6.356446 -11.237279
Spine -15.958930 22.235964 22.775420
Head -14.053584 0.991399 -6.876740
LeftShoulder -11.414094 17.644268 7.753253
LeftArm 26.650981 46.290659 -69.072000
LeftForeArm 20.069242 -0.000000 37.984759
LeftHand -24.556323 -0.000000 1.141207
LeftHandThumb1 -26.253704 0.000000 33.147579
RightShoulder -18.604472 13.523042 -24.954798
RightArm -16.421640 -9.374688 53.108006
RightForeArm -25.688094 -0.000000 31.229116
RightHand -6.292526 -0.000000 9.241018
RightHandThumb1 -24.326973 -0.000000 -32.862282
LeftUpLeg -108.721956 -13.166650 -62.716740
LeftLeg 137.190606 -0.000000 -0.000000
LeftFoot 41.218955 7.517179 -27.610806
LeftToeBase 6.681447 -0.000000 -0.000000
RightUpLeg -26.771921 -34.983397 -56.772828
RightLeg 136.859691 -0.000000 -0.000000
RightFoot 18.622083 -29.106221 3.416220
RightToeBase 15.018470 -0.000000 -0.000000
1741
root 3.083696 4.937472 -7.222310 24.236891 -6.345449 -11.242001
Spine -15.911746 22.250405 22.788315
Head -13.958359 0.923434 -6.803321
LeftShoulder -11.448963 17.653598 7.731424
LeftArm 26.699207 46.268011 -69.066794
LeftForeArm 20.260428 0.000000 37.951676
LeftHand -24.643718 -0.000000 0.981684
LeftHandThumb1 -26.253704 0.000000 33.147579
RightShoulder -18.589538 13.526651 -24.944728
RightArm -16.385693 -9.436760 53.094477
RightForeArm -25.523424 -0.000000 31.071723
RightHand -6.240592 -0.000000 9.249401
RightHandThumb1 -24.326973 -0.000000 -32.862282
LeftUpLeg -108.686261 -13.145287 -62.714720
LeftLeg 137.188373 -0.000000 -0.000000
LeftFoot 41.164649 7.542594 -27.677683
LeftToeBase 6.736815 -0.000000 -0.000000
RightUpLeg -26.751217 -34.933507 -56.783387
RightLeg 136.860053 -0.000000 -0.000000
RightFoot 18.647298 -29.123793 3.442337
RightToeBase 15.107163 -0.000000 -0.000000
1742
root 3.084508 4.936625 -7.224772 24.204127 -6.334329 -11.253566
Spine -15.894478 22.278168 22.791178
Head -13.843056 0.835505 -6.713911
LeftShoulder -11.449666 17.666799 7.717621
LeftArm 26.735548 46.263278 -69.045394
LeftForeArm 20.355905 -0.000000 37.939607
LeftHand -24.596019 0.000000 0.804088
LeftHandThumb1 -26.253704 0.000000 33.147579
RightShoulder -18.580023 13.538727 -24.922905
RightArm -16.353073 -9.502892 53.068486
RightForeArm -25.383596 -0.000000 30.921102
RightHand -6.265765 -0.000000 9.323337
RightHandThumb1 -24.326973 -0.000000 -32.862282
LeftUpLeg -108.660497 -13.134447 -62.714643
LeftLeg 137.182203 -0.000000 -0.000000
LeftFoot 41.148678 7.626724 -27.751333
LeftToeBase 6.663684 -0.000000 -0.000000
RightUpLeg -26.739318 -34.892467 -56.776986
RightLeg 136.863526 -0.000000 -0.000000
RightFoot 18.678918 -29.116141 3.433260
RightToeBase 15.156086 -0.000000 -0.000000
1743
root 3.086804 4.935892 -7.226250 24.161346 -6.315909 -11.267522
Spine -15.861749 22.298564 22.817655
Head -13.725514 0.786647 -6.655956
LeftShoulder -11.458896 17.662954 7.729802
LeftArm 26.747113 46.306462 -69.069675
LeftForeArm 20.350128 0.000000 37.943952
LeftHand -24.465529 -0.000000 0.638593
LeftHandThumb1 -26.253704 0.000000 33.147579
RightShoulder -18.577351 13.549076 -24.912416
RightArm -16.295766 -9.515302 53.025537
RightForeArm -25.336317 -0.000000 30.757453
RightHand -6.279636 -0.000000 9.471667
RightHandThumb1 -24.326973 -0.000000 -32.862282
LeftUpLeg -108.623363 -13.117462 -62.730732
LeftLeg 137.171623 -0.000000 -0.000000
LeftFoot 41.114751 7.704297 -27.771554
LeftToeBase 6.664871 -0.000000 -0.000000
RightUpLeg -26.713476 -34.859653 -56.771794
RightLeg 136.859392 -0.000000 -0.000000
RightFoot 18.675802 -29.141926 3.446152
RightToeBase 15.308102 -0.000000 -0.000000
1744
root 3.090422 4.935255 -7.227659 24.117772 -6.313969 -11.266566
Spine -15.821941 22.340838 22.815642
Head -13.646002 0.691022 -6.587576
LeftShoulder -11.456716 17.636651 7.722206
LeftArm 26.742072 46.332280 -69.087384
LeftForeArm 20.318539 0.000000 37.943615
LeftHand -24.443719 0.000000 0.614473
LeftHandThumb1 -26.253704 0.000000 33.147579
RightShoulder -18.593748 13.581744 -24.902278
RightArm -16.236797 -9.456097 52.969955
RightForeArm -25.385005 -0.000000 30.560513
RightHand -6.224694 -0.000000 9.749975
RightHandThumb1 -24.326973 -0.000000 -32.862282
LeftUpLeg -108.595448 -13.101190 -62.721161
LeftLeg 137.161630 -0.000000 -0.000000
LeftFoot 41.099667 7.686944 -27.783426
LeftToeBase 6.700148 -0.000000 -0.000000
RightUpLeg -26.721675 -34.837669 -56.771562
RightLeg 136.821407 -0.000000 -0.000000
RightFoot 18.750727 -29.315425 3.542446
RightToeBase 15.358638 -0.000000 -0.000000
1745
root 3.090781 4.935173 -7.229316 24.091978 -6.296838 -11.290271
Spine -15.812646 22.387903 22.832469
Head -13.547833 0.599379 -6.523604
LeftShoulder -11.447146 17.631481 7.718858
LeftArm 26.737567 46.326766 -69.112830
LeftForeArm 20.302139 -0.000000 37.952109
LeftHand -24.403483 0.000000 0.512303
LeftHandThumb1 -26.253704 0.000000 33.147579
RightShoulder -18.611225 13.608339 -24.882838
RightArm -16.174161 -9.365809 52.891445
RightForeArm -25.433245 0.000000 30.358529
RightHand -6.184698 -0.000000 10.029246
RightHandThumb1 -24.326973 -0.000000 -32.862282
LeftUpLeg -108.568130 -13.088053 -62.738070
LeftLeg 137.155669 -0.000000 -0.000000
LeftFoot 41.071913 7.738211 -27.775259
LeftToeBase 6.709801 -0.000000 -0.000000
RightUpLeg -26.688204 -34.789695 -56.753733
RightLeg 136.856050 -0.000000 -0.000000
RightFoot 18.667796 -29.203747 3.517760
RightToeBase 15.544649 -0.000000 -0.000000
1746
root 3.093668 4.934318 -7.232093 24.065373 -6.278467 -11.296245
Spine -15.799353 22.418043 22.830384
Head -13.464003 0.528420 -6.445691
LeftShoulder -11.452762 17.620355 7.723055
LeftArm 26.755901 46.342523 -69.125543
LeftForeArm 20.264818 -0.000000 37.955520
LeftHand -24.391847 -0.000000 0.517360
LeftHandThumb1 -26.253704 0.000000 33.147579
RightShoulder -18.600982 13.677227 -24.877198
RightArm -16.200579 -9.354071 52.841490
RightForeArm -25.355329 -0.000000 30.209618
RightHand -6.217488 -0.000000 10.193325
RightHandThumb1 -24.326973 -0.000000 -32.862282
LeftUpLeg -108.532032 -13.081530 -62.731451
LeftLeg 137.148386 -0.000000 -0.000000
LeftFoot 41.030858 7.726660 -27.799049
LeftToeBase 6.614287 -0.000000 -0.000000
RightUpLeg -26.689257 -34.783275 -56.741545
RightLeg 136.827003 -0.000000 -0.000000
RightFoot 18.709127 -29.359441 3.628905
RightToeBase 15.650588 -0.000000 -0.000000
